<?xml version="1.0" encoding="UTF-8" standalone="no"?>
<svg
        id="Layer_1"
        style="enable-background:new 0 0 512 512"
        version="1.1"
        width="16"
        height="16"
        viewBox="0 0 512 512"
        xml:space="preserve"
        sodipodi:docname="pluginIcon.svg"
        inkscape:version="1.1.1 (3bf5ae0d25, 2021-09-20)"
        xmlns:inkscape="http://www.inkscape.org/namespaces/inkscape"
        xmlns:sodipodi="http://sodipodi.sourceforge.net/DTD/sodipodi-0.dtd"
        xmlns="http://www.w3.org/2000/svg"
        xmlns:svg="http://www.w3.org/2000/svg"><defs
     id="defs15"><filter
       inkscape:label="Bloom"
       inkscape:menu="Bevels"
       inkscape:menu-tooltip="Soft, cushion-like bevel with matte highlights"
       style="color-interpolation-filters:sRGB;"
       id="filter1250"
       x="-0.032978735"
       y="-0.081604785"
       width="1.0659575"
       height="1.1632096"><feGaussianBlur
         result="result1"
         in="SourceAlpha"
         stdDeviation="2.2"
         id="feGaussianBlur1226" /><feSpecularLighting
        result="result0"
        specularExponent="18.1"
        specularConstant="2"
        surfaceScale="5"
        id="feSpecularLighting1230"><feDistantLight
           azimuth="225"
           elevation="24"
           id="feDistantLight1228" /></feSpecularLighting><feComposite
        result="result6"
        operator="in"
        in2="SourceAlpha"
        id="feComposite1232" /><feMorphology
        radius="5.7"
        operator="dilate"
        id="feMorphology1234" /><feGaussianBlur
        result="result11"
        stdDeviation="5.7"
        id="feGaussianBlur1236" /><feDiffuseLighting
        surfaceScale="5"
        result="result3"
        diffuseConstant="2"
        in="result1"
        id="feDiffuseLighting1240"><feDistantLight
           elevation="25"
           azimuth="225"
           id="feDistantLight1238" /></feDiffuseLighting><feBlend
        result="result7"
        mode="multiply"
        in="result3"
        in2="SourceGraphic"
        id="feBlend1242" /><feComposite
        in="result7"
        operator="in"
        in2="SourceAlpha"
        result="result91"
        id="feComposite1244" /><feBlend
        result="result9"
        mode="lighten"
        in="result6"
        in2="result91"
        id="feBlend1246" /><feComposite
        in="result11"
        in2="result9"
        id="feComposite1248" /></filter></defs><sodipodi:namedview
        id="namedview13"
        pagecolor="#ffffff"
        bordercolor="#666666"
        borderopacity="1.0"
        inkscape:pageshadow="2"
        inkscape:pageopacity="0.0"
        inkscape:pagecheckerboard="0"
        showgrid="false"
        inkscape:zoom="52.375"
        inkscape:cx="9.9761337"
        inkscape:cy="9.8042959"
        inkscape:current-layer="Layer_1" /><style
        type="text/css"
        id="style2">.st1{fill:#f4f4f4}.st3{fill:#e91e26}</style><g
        fill-opacity=".9"
        id="XMLID_1_"
        transform="matrix(.684 0 0 .684 3.942 -7.7)"><path
       id="XMLID_4_"
       style="fill:#3592c4"
       d="M0 106.7h170.7v298.7H0z" /><path
        class="st1"
        id="XMLID_3_"
        d="M170.7 106.7h170.7v298.7H170.7z" /><path
        id="XMLID_2_"
        style="fill:#d81e34"
        d="M341.3 106.7H512v298.7H341.3z" /></g><g
        id="XMLID_1_-5"
        transform="matrix(.684 0 0 .684 155.873 169.02)"><path
       class="st3"
       id="XMLID_6_"
       d="M0 106.7h120.4v298.7H0z" /><path
        class="st3"
        id="XMLID_5_"
        d="M391.6 106.7H512v298.7H391.6z" /><path
        class="st1"
        id="XMLID_4_-7"
        d="M120.4 106.7h271.1v298.7H120.4z" /><path
        class="st3"
        d="m256 145.4-17.8 34.5c-2 3.8-5.6 3.4-9.2 1.3l-12.9-6.9 9.6 53c2 9.7-4.5 9.7-7.6 5.5l-22.4-26.2-3.6 13.3c-.4 1.7-2.3 3.6-5 3.1l-28.4-6.2 7.5 28.2c1.6 6.3 2.8 8.9-1.6 10.5l-10.1 4.9 48.8 41.3c1.9 1.6 2.9 4.4 2.2 6.9l-4.3 14.6 48.7-5.8c1.5 0 4 1.3 4 3.1l-2.2 53.5h8.2l-1.3-53.4c0-1.8 2.2-3.2 3.7-3.2l48.7 5.8-4.3-14.6c-.7-2.5.3-5.4 2.2-6.9l48.8-41.3-10.1-4.9c-4.4-1.7-3.2-4.3-1.6-10.5l7.4-28.2L325 223c-2.8.4-4.6-1.4-5-3.1l-3.6-13.3-22.4 26.2c-3.2 4.2-9.7 4.2-7.6-5.5l9.6-53-12.9 6.9c-3.6 2.1-7.2 2.4-9.2-1.3z"
        id="XMLID_3_-0" /></g><text
        xml:space="preserve"
        style="font-style:normal;font-weight:normal;font-size:307.583px;line-height:0.85;font-family:sans-serif;letter-spacing:0px;word-spacing:0px;fill:#000000;fill-opacity:1;stroke:none;stroke-width:25.6318;filter:url(#filter1250)"
        x="-79.02446"
        y="390.04056"
        id="text3125"
        transform="matrix(0.83101907,-0.18481249,0.25334196,1.144503,-0.06012996,-0.03622317)"><tspan
       sodipodi:role="line"
       id="tspan3123"
       style="stroke-width:25.6318"
       x="-79.02446"
       y="390.04056">JUG</tspan></text></svg>
